<svg xmlns="http://www.w3.org/2000/svg" width="22.282" height="15.367" viewBox="0 0 22.282 15.367">
  <g id="brasil" transform="translate(0.001 -0.5)">
    <path id="Caminho_2917" data-name="Caminho 2917" d="M17.287,15.867h4.226a.768.768,0,0,0,.768-.768V1.269A.768.768,0,0,0,21.513.5H.768A.768.768,0,0,0,0,1.269V15.1a.768.768,0,0,0,.768.768Zm0,0" fill="#4c8056"/>
    <path id="Caminho_2918" data-name="Caminho 2918" d="M79.449,58.459l7.683,4.994,7.683-4.994-7.683-4.994Zm0,0" transform="translate(-75.992 -50.66)" fill="#f3d55b"/>
    <path id="Caminho_2919" data-name="Caminho 2919" d="M199.582,109.113a2.635,2.635,0,0,1-.507,1.568,2.579,2.579,0,0,1-.649.642,2.688,2.688,0,0,1-4.222-2.209.338.338,0,0,1,0-.062,2.5,2.5,0,0,1,.177-.9,2.687,2.687,0,0,1,5.2.96Zm0,0" transform="translate(-185.752 -101.313)" fill="#3b97d3"/>
    <path id="Caminho_2920" data-name="Caminho 2920" d="M199.165,144.461a2.579,2.579,0,0,1-.649.642l-.038-.215a2.881,2.881,0,0,0-3.984-2.14l-.2.084a2.494,2.494,0,0,1,.177-.9,3.522,3.522,0,0,1,1.164-.192A3.631,3.631,0,0,1,199.165,144.461Zm0,0" transform="translate(-185.842 -135.094)" fill="#ecf0f1"/>
  </g>
</svg>
