<svg xmlns="http://www.w3.org/2000/svg" xmlns:xlink="http://www.w3.org/1999/xlink" width="678" height="952" viewBox="0 0 678 952">
  <defs>
    <filter id="scale-white-color-0" x="15" y="135" width="345" height="210" filterUnits="userSpaceOnUse">
      <feOffset dx="10" dy="10" input="SourceAlpha"/>
      <feGaussianBlur stdDeviation="10" result="blur"/>
      <feFlood flood-color="#080821" flood-opacity="0.059"/>
      <feComposite operator="in" in2="blur"/>
      <feComposite in="SourceGraphic"/>
    </filter>
    <filter id="scale-white-color-0-2" x="330" y="133" width="345" height="210" filterUnits="userSpaceOnUse">
      <feOffset dx="10" dy="10" input="SourceAlpha"/>
      <feGaussianBlur stdDeviation="10" result="blur-2"/>
      <feFlood flood-color="#080821" flood-opacity="0.059"/>
      <feComposite operator="in" in2="blur-2"/>
      <feComposite in="SourceGraphic"/>
    </filter>
    <filter id="Retângulo_1" x="0" y="0" width="678" height="952" filterUnits="userSpaceOnUse">
      <feOffset dx="4" dy="6" input="SourceAlpha"/>
      <feGaussianBlur stdDeviation="3" result="blur-3"/>
      <feFlood flood-opacity="0.161"/>
      <feComposite operator="in" in2="blur-3"/>
      <feComposite in="SourceGraphic"/>
    </filter>
    <clipPath id="clip-path">
      <g transform="matrix(1, 0, 0, 1, 0, 0)" filter="url(#scale-white-color-0)">
        <rect id="scale-white-color-0-3" data-name="scale-white-color-0" width="285" height="150" rx="20" fill="#1414fe"/>
      </g>
    </clipPath>
    <filter id="scale-white-color-0-5" x="23" y="315" width="321" height="190" filterUnits="userSpaceOnUse">
      <feOffset dx="6" dy="6" input="SourceAlpha"/>
      <feGaussianBlur stdDeviation="6" result="blur-4"/>
      <feFlood flood-color="#080821" flood-opacity="0.059"/>
      <feComposite operator="in" in2="blur-4"/>
      <feComposite in="SourceGraphic"/>
    </filter>
    <filter id="scale-white-color-0-6" x="11" y="303" width="321" height="190" filterUnits="userSpaceOnUse">
      <feOffset dx="-6" dy="-6" input="SourceAlpha"/>
      <feGaussianBlur stdDeviation="6" result="blur-5"/>
      <feFlood flood-color="#fff" flood-opacity="0.702"/>
      <feComposite operator="in" in2="blur-5"/>
      <feComposite in="SourceGraphic"/>
    </filter>
    <linearGradient id="linear-gradient" x1="-0.062" y1="-0.136" x2="0.378" y2="0.386" gradientUnits="objectBoundingBox">
      <stop offset="0" stop-opacity="0.302"/>
      <stop offset="1" stop-opacity="0"/>
    </linearGradient>
    <filter id="scale-white-color-0-7" x="23" y="673" width="321" height="116" filterUnits="userSpaceOnUse">
      <feOffset dx="6" dy="6" input="SourceAlpha"/>
      <feGaussianBlur stdDeviation="6" result="blur-6"/>
      <feFlood flood-color="#080821" flood-opacity="0.059"/>
      <feComposite operator="in" in2="blur-6"/>
      <feComposite in="SourceGraphic"/>
    </filter>
    <filter id="scale-white-color-0-8" x="11" y="661" width="321" height="116" filterUnits="userSpaceOnUse">
      <feOffset dx="-6" dy="-6" input="SourceAlpha"/>
      <feGaussianBlur stdDeviation="6" result="blur-7"/>
      <feFlood flood-color="#fff" flood-opacity="0.702"/>
      <feComposite operator="in" in2="blur-7"/>
      <feComposite in="SourceGraphic"/>
    </filter>
    <filter id="scale-white-color-0-9" x="338" y="313" width="317" height="190" filterUnits="userSpaceOnUse">
      <feOffset dx="6" dy="6" input="SourceAlpha"/>
      <feGaussianBlur stdDeviation="6" result="blur-8"/>
      <feFlood flood-color="#080821" flood-opacity="0.059"/>
      <feComposite operator="in" in2="blur-8"/>
      <feComposite in="SourceGraphic"/>
    </filter>
    <filter id="scale-white-color-0-10" x="326" y="301" width="317" height="190" filterUnits="userSpaceOnUse">
      <feOffset dx="-6" dy="-6" input="SourceAlpha"/>
      <feGaussianBlur stdDeviation="6" result="blur-9"/>
      <feFlood flood-color="#fff" flood-opacity="0.702"/>
      <feComposite operator="in" in2="blur-9"/>
      <feComposite in="SourceGraphic"/>
    </filter>
    <clipPath id="clip-path-3">
      <circle id="Elipse_15" data-name="Elipse 15" cx="31.5" cy="31.5" r="31.5" transform="translate(14660.267 286.267)" fill="#fff" stroke="#707070" stroke-width="1"/>
    </clipPath>
    <clipPath id="clip-path-4">
      <circle id="Elipse_16" data-name="Elipse 16" cx="31.5" cy="31.5" r="31.5" transform="translate(14670 617)" fill="#fff" stroke="#707070" stroke-width="1"/>
    </clipPath>
    <clipPath id="clip-path-5">
      <rect id="top_oblongo" data-name="top oblongo" width="183" height="66" rx="33" transform="translate(214 36)" fill="#f0ece9" stroke="#a1a1a1" stroke-width="1"/>
    </clipPath>
    <filter id="bottom_oblongo" x="235" y="525" width="201.014" height="139.94" filterUnits="userSpaceOnUse">
      <feOffset dy="1" input="SourceAlpha"/>
      <feGaussianBlur stdDeviation="2" result="blur-10"/>
      <feFlood flood-opacity="0.6"/>
      <feComposite operator="in" in2="blur-10"/>
      <feComposite in="SourceGraphic"/>
    </filter>
    <linearGradient id="linear-gradient-4" x1="0.196" y1="0.13" x2="0.5" y2="0.5" gradientUnits="objectBoundingBox">
      <stop offset="0" stop-color="#5b7d99"/>
      <stop offset="1" stop-color="#354959"/>
    </linearGradient>
    <filter id="bottom_elipse" x="355" y="529" width="88" height="88" filterUnits="userSpaceOnUse">
      <feOffset dx="6" dy="6" input="SourceAlpha"/>
      <feGaussianBlur stdDeviation="5" result="blur-11"/>
      <feFlood flood-opacity="0.349"/>
      <feComposite operator="in" in2="blur-11"/>
      <feComposite in="SourceGraphic"/>
    </filter>
    <filter id="scale-white-color-0-11" x="349" y="790" width="319" height="156" filterUnits="userSpaceOnUse">
      <feOffset dx="10" dy="10" input="SourceAlpha"/>
      <feGaussianBlur stdDeviation="10" result="blur-12"/>
      <feFlood flood-color="#04060f" flood-opacity="0.702"/>
      <feComposite operator="in" in2="blur-12"/>
      <feComposite in="SourceGraphic"/>
    </filter>
    <filter id="scale-white-color-0-12" x="329" y="770" width="319" height="156" filterUnits="userSpaceOnUse">
      <feOffset dx="-10" dy="-10" input="SourceAlpha"/>
      <feGaussianBlur stdDeviation="10" result="blur-13"/>
      <feFlood flood-color="#fff" flood-opacity="0.059"/>
      <feComposite operator="in" in2="blur-13"/>
      <feComposite in="SourceGraphic"/>
    </filter>
    <filter id="scale-white-color-0-13" x="339" y="673" width="321" height="116" filterUnits="userSpaceOnUse">
      <feOffset dx="6" dy="6" input="SourceAlpha"/>
      <feGaussianBlur stdDeviation="6" result="blur-14"/>
      <feFlood flood-color="#080821" flood-opacity="0.059"/>
      <feComposite operator="in" in2="blur-14"/>
      <feComposite in="SourceGraphic"/>
    </filter>
    <filter id="scale-white-color-0-14" x="331" y="665" width="321" height="116" filterUnits="userSpaceOnUse">
      <feOffset dx="-2" dy="-2" input="SourceAlpha"/>
      <feGaussianBlur stdDeviation="6" result="blur-15"/>
      <feFlood flood-color="#6b6b6b" flood-opacity="0.702"/>
      <feComposite operator="in" in2="blur-15"/>
      <feComposite in="SourceGraphic"/>
    </filter>
  </defs>
  <g id="Grupo_3137" data-name="Grupo 3137" transform="translate(-19297 -12466)">
    <g transform="matrix(1, 0, 0, 1, 19297, 12466)" filter="url(#Retângulo_1)">
      <rect id="Retângulo_1-2" data-name="Retângulo 1" width="660" height="934" rx="40" transform="translate(5 3)" fill="#f3f3f6"/>
    </g>
    <g id="push_light_btn" transform="translate(19332 12621)">
      <g id="Grupo_39" data-name="Grupo 39">
        <rect id="scale-white-color-0-15" data-name="scale-white-color-0" width="285" height="150" rx="20" fill="#f3f3f6"/>
        <g id="Grupo_de_máscara_2" data-name="Grupo de máscara 2" clip-path="url(#clip-path)">
          <g id="scale-white-color-0-16" data-name="scale-white-color-0" fill="none" stroke="#080821" stroke-width="4" opacity="0.16">
            <rect width="320.793" height="168.75" rx="20" stroke="none"/>
            <rect x="2" y="2" width="316.793" height="164.75" rx="18" fill="none"/>
          </g>
          <g id="scale-white-color-0-17" data-name="scale-white-color-0" transform="translate(-35.644 -18.75)" fill="none" stroke="#fff" stroke-width="4">
            <rect width="320.793" height="168.75" rx="20" stroke="none"/>
            <rect x="2" y="2" width="316.793" height="164.75" rx="18" fill="none"/>
          </g>
        </g>
      </g>
      <g id="scale-white-color-0-18" data-name="scale-white-color-0" fill="none" stroke="#ebebeb" stroke-width="0.5" opacity="0.6">
        <rect width="285" height="150" rx="20" stroke="none"/>
        <rect x="0.25" y="0.25" width="284.5" height="149.5" rx="19.75" fill="none"/>
      </g>
    </g>
    <g id="push_light_btn-2" data-name="push_light_btn" transform="translate(19647 12619)">
      <g id="Grupo_39-2" data-name="Grupo 39">
        <rect id="scale-white-color-0-19" data-name="scale-white-color-0" width="285" height="150" rx="20" fill="#f3f3f6"/>
        <g id="Grupo_de_máscara_2-2" data-name="Grupo de máscara 2" clip-path="url(#clip-path)">
          <g id="scale-white-color-0-20" data-name="scale-white-color-0" fill="none" stroke="#080821" stroke-width="4" opacity="0.16">
            <rect width="320.793" height="168.75" rx="20" stroke="none"/>
            <rect x="2" y="2" width="316.793" height="164.75" rx="18" fill="none"/>
          </g>
          <g id="scale-white-color-0-21" data-name="scale-white-color-0" transform="translate(-35.644 -18.75)" fill="none" stroke="#fff" stroke-width="4">
            <rect width="320.793" height="168.75" rx="20" stroke="none"/>
            <rect x="2" y="2" width="316.793" height="164.75" rx="18" fill="none"/>
          </g>
        </g>
      </g>
      <g id="scale-white-color-0-22" data-name="scale-white-color-0" fill="none" stroke="#ebebeb" stroke-width="0.5" opacity="0.6">
        <rect width="285" height="150" rx="20" stroke="none"/>
        <rect x="0.25" y="0.25" width="284.5" height="149.5" rx="19.75" fill="none"/>
      </g>
    </g>
    <g id="up_light_btn" transform="translate(19332 12793)">
      <g id="Grupo_38" data-name="Grupo 38">
        <g transform="matrix(1, 0, 0, 1, -35, -327)" filter="url(#scale-white-color-0-5)">
          <rect id="scale-white-color-0-23" data-name="scale-white-color-0" width="285" height="154" rx="20" transform="translate(35 327)" fill="#f3f3f6"/>
        </g>
        <g transform="matrix(1, 0, 0, 1, -35, -327)" filter="url(#scale-white-color-0-6)">
          <rect id="scale-white-color-0-24" data-name="scale-white-color-0" width="285" height="154" rx="20" transform="translate(35 327)" fill="#f3f3f6"/>
        </g>
      </g>
      <g id="scale-white-color-0-25" data-name="scale-white-color-0" fill="none" stroke="#ebebeb" stroke-width="0.5" opacity="0.16">
        <rect width="285" height="154" rx="20" stroke="none"/>
        <rect x="0.25" y="0.25" width="284.5" height="153.5" rx="19.75" fill="none"/>
      </g>
      <rect id="scale-white-color-0-26" data-name="scale-white-color-0" width="285" height="154" rx="20" opacity="0.1" fill="url(#linear-gradient)"/>
    </g>
    <g id="up_light_btn-2" data-name="up_light_btn" transform="translate(19332 13151)">
      <g id="Grupo_38-2" data-name="Grupo 38">
        <g transform="matrix(1, 0, 0, 1, -35, -685)" filter="url(#scale-white-color-0-7)">
          <rect id="scale-white-color-0-27" data-name="scale-white-color-0" width="285" height="80" rx="20" transform="translate(35 685)" fill="#f3f3f6"/>
        </g>
        <g transform="matrix(1, 0, 0, 1, -35, -685)" filter="url(#scale-white-color-0-8)">
          <rect id="scale-white-color-0-28" data-name="scale-white-color-0" width="285" height="80" rx="20" transform="translate(35 685)" fill="#f3f3f6"/>
        </g>
      </g>
      <g id="scale-white-color-0-29" data-name="scale-white-color-0" fill="none" stroke="#ebebeb" stroke-width="0.5" opacity="0.16">
        <rect width="285" height="80" rx="20" stroke="none"/>
        <rect x="0.25" y="0.25" width="284.5" height="79.5" rx="19.75" fill="none"/>
      </g>
      <rect id="scale-white-color-0-30" data-name="scale-white-color-0" width="285" height="80" rx="20" opacity="0.1" fill="url(#linear-gradient)"/>
    </g>
    <g id="up_light_btn-3" data-name="up_light_btn" transform="translate(19647 12791)">
      <g id="Grupo_38-3" data-name="Grupo 38">
        <g transform="matrix(1, 0, 0, 1, -350, -325)" filter="url(#scale-white-color-0-9)">
          <rect id="scale-white-color-0-31" data-name="scale-white-color-0" width="281" height="154" rx="20" transform="translate(350 325)" fill="#f3f3f6"/>
        </g>
        <g transform="matrix(1, 0, 0, 1, -350, -325)" filter="url(#scale-white-color-0-10)">
          <rect id="scale-white-color-0-32" data-name="scale-white-color-0" width="281" height="154" rx="20" transform="translate(350 325)" fill="#f3f3f6"/>
        </g>
      </g>
      <g id="scale-white-color-0-33" data-name="scale-white-color-0" fill="none" stroke="#ebebeb" stroke-width="0.5" opacity="0.16">
        <rect width="281" height="154" rx="20" stroke="none"/>
        <rect x="0.25" y="0.25" width="280.5" height="153.5" rx="19.75" fill="none"/>
      </g>
      <rect id="scale-white-color-0-34" data-name="scale-white-color-0" width="281" height="154" rx="20" opacity="0.1" fill="url(#linear-gradient)"/>
    </g>
    <text id="Detalhes" transform="translate(19437 13333)" fill="#22376b" font-size="24" font-family="Roboto-Regular, Roboto"><tspan x="0" y="0">Detalhes</tspan></text>
    <text id="Insira_os_valores" data-name="Insira os valores" transform="translate(19332 12594)" fill="#88898f" font-size="32" font-family="Roboto-Regular, Roboto"><tspan x="0" y="0">Insira os valores</tspan></text>
    <text id="Avançado" transform="translate(19332 13123)" fill="#88898f" font-size="32" font-family="Roboto-Regular, Roboto"><tspan x="0" y="0">Avançado</tspan></text>
    <text id="Moeda_estrangeira" data-name="Moeda estrangeira" transform="translate(19375 13200)" fill="#88898f" font-size="24" font-family="Roboto-Regular, Roboto"><tspan x="0" y="0">Moeda estrangeira</tspan></text>
    <text id="Dólar_americano" data-name="Dólar americano" transform="translate(19387 12930)" fill="#88898f" font-size="24" font-family="Roboto-Regular, Roboto"><tspan x="0" y="0">Dólar americano</tspan></text>
    <text id="Conversor_de_moeda" data-name="Conversor de moeda" transform="translate(19485 12526)" fill="#458dc4" font-size="32" font-family="Roboto-Regular, Roboto"><tspan x="0" y="0">CONVERSOR DE MOEDA</tspan></text>
    <text id="Real_brasileiro" data-name="Real brasileiro" transform="translate(19712 12928)" fill="#88898f" font-size="24" font-family="Roboto-Regular, Roboto"><tspan x="0" y="0">Real brasileiro</tspan></text>
    <g id="Grupo_7" data-name="Grupo 7" transform="translate(19416 13316)">
      <path id="Caminho_9" data-name="Caminho 9" d="M468.967,371.247v16" transform="translate(-460.967 -371.247)" fill="none" stroke="#22376b" stroke-linecap="round" stroke-width="2"/>
      <path id="Caminho_10" data-name="Caminho 10" d="M0,0V16" transform="translate(16 8) rotate(90)" fill="none" stroke="#22376b" stroke-linecap="round" stroke-width="2"/>
    </g>
    <path id="Polígono_4" data-name="Polígono 4" d="M11.5,0,23,20H0Z" transform="translate(19586 12865) rotate(180)" fill="#22376b"/>
    <path id="Polígono_5" data-name="Polígono 5" d="M11.5,0,23,20H0Z" transform="translate(19898 12865) rotate(180)" fill="#22376b"/>
    <g id="Grupo_de_máscara_6" data-name="Grupo de máscara 6" transform="translate(4699.733 12536.733)" clip-path="url(#clip-path-3)">
      <g id="USA" transform="translate(14654.938 292.626)">
        <rect id="Retângulo_229" data-name="Retângulo 229" width="73.161" height="50.806" transform="translate(0.248 0.753)" fill="#eceff1"/>
        <g id="Grupo_3074" data-name="Grupo 3074" transform="translate(0)">
          <rect id="Retângulo_230" data-name="Retângulo 230" width="73.68" height="5.731" transform="translate(0)" fill="#f44336"/>
          <rect id="Retângulo_231" data-name="Retângulo 231" width="73.68" height="5.731" transform="translate(0 11.462)" fill="#f44336"/>
          <rect id="Retângulo_232" data-name="Retângulo 232" width="73.68" height="5.731" transform="translate(0 22.924)" fill="#f44336"/>
          <rect id="Retângulo_233" data-name="Retângulo 233" width="73.68" height="5.731" transform="translate(0 34.386)" fill="#f44336"/>
          <rect id="Retângulo_234" data-name="Retângulo 234" width="73.68" height="5.731" transform="translate(0 45.847)" fill="#f44336"/>
        </g>
        <rect id="Retângulo_235" data-name="Retângulo 235" width="35.165" height="28.655" transform="translate(0)" fill="#3f51b5"/>
        <g id="Grupo_3075" data-name="Grupo 3075" transform="translate(1.256 3.821)">
          <path id="Caminho_3034" data-name="Caminho 3034" d="M5.262,12l.775,1.887,1.737.3L6.518,15.66l.3,2.071-1.554-.978-1.554.978.3-2.071L2.75,14.189l1.737-.3Z" transform="translate(-2.75 -12)" fill="#fff"/>
          <path id="Caminho_3035" data-name="Caminho 3035" d="M9.262,12l.775,1.887,1.737.3L10.518,15.66l.3,2.071-1.554-.978-1.554.978.3-2.071L6.75,14.189l1.737-.3Z" transform="translate(-0.052 -12)" fill="#fff"/>
          <path id="Caminho_3036" data-name="Caminho 3036" d="M13.262,12l.775,1.887,1.737.3L14.518,15.66l.3,2.071-1.554-.978-1.554.978.3-2.071L10.75,14.189l1.737-.3Z" transform="translate(2.646 -12)" fill="#fff"/>
          <path id="Caminho_3037" data-name="Caminho 3037" d="M17.262,12l.775,1.887,1.736.3L18.518,15.66l.3,2.071-1.554-.978-1.554.978.3-2.071L14.75,14.189l1.737-.3Z" transform="translate(5.345 -12)" fill="#fff"/>
          <path id="Caminho_3038" data-name="Caminho 3038" d="M21.012,12l.775,1.887,1.736.3L22.268,15.66l.3,2.071-1.554-.978-1.554.978.3-2.071L18.5,14.189l1.737-.3Z" transform="translate(7.874 -12)" fill="#fff"/>
          <path id="Caminho_3039" data-name="Caminho 3039" d="M5.262,20l.775,1.887,1.737.3L6.518,23.66l.3,2.071-1.554-.978-1.554.978.3-2.071L2.75,22.189l1.737-.3Z" transform="translate(-2.75 -4.718)" fill="#fff"/>
          <path id="Caminho_3040" data-name="Caminho 3040" d="M9.262,20l.775,1.887,1.737.3L10.518,23.66l.3,2.071-1.554-.978-1.554.978.3-2.071L6.75,22.189l1.737-.3Z" transform="translate(-0.052 -4.718)" fill="#fff"/>
          <path id="Caminho_3041" data-name="Caminho 3041" d="M13.262,20l.775,1.887,1.737.3L14.518,23.66l.3,2.071-1.554-.978-1.554.978.3-2.071L10.75,22.189l1.737-.3Z" transform="translate(2.646 -4.718)" fill="#fff"/>
          <path id="Caminho_3042" data-name="Caminho 3042" d="M17.262,20l.775,1.887,1.736.3L18.518,23.66l.3,2.071-1.554-.978-1.554.978.3-2.071L14.75,22.189l1.737-.3Z" transform="translate(5.345 -4.718)" fill="#fff"/>
          <path id="Caminho_3043" data-name="Caminho 3043" d="M21.012,20l.775,1.887,1.736.3L22.268,23.66l.3,2.071-1.554-.978-1.554.978.3-2.071L18.5,22.189l1.737-.3Z" transform="translate(7.874 -4.718)" fill="#fff"/>
          <path id="Caminho_3044" data-name="Caminho 3044" d="M6.262,16l.775,1.887,1.737.3L7.518,19.66l.3,2.071-1.554-.978-1.554.978.3-2.071L3.75,18.189l1.737-.3Z" transform="translate(-2.075 -8.359)" fill="#fff"/>
          <path id="Caminho_3045" data-name="Caminho 3045" d="M10.262,16l.775,1.887,1.737.3L11.518,19.66l.3,2.071-1.554-.978-1.554.978.3-2.071L7.75,18.189l1.737-.3Z" transform="translate(0.623 -8.359)" fill="#fff"/>
          <path id="Caminho_3046" data-name="Caminho 3046" d="M14.262,16l.775,1.887,1.737.3L15.518,19.66l.3,2.071-1.554-.978-1.554.978.3-2.071L11.75,18.189l1.737-.3Z" transform="translate(3.321 -8.359)" fill="#fff"/>
          <path id="Caminho_3047" data-name="Caminho 3047" d="M18.262,16l.775,1.887,1.737.3L19.518,19.66l.3,2.071-1.554-.978-1.554.978.3-2.071L15.75,18.189l1.737-.3Z" transform="translate(6.019 -8.359)" fill="#fff"/>
          <path id="Caminho_3048" data-name="Caminho 3048" d="M22.012,16l.775,1.887,1.737.3L23.268,19.66l.3,2.071-1.554-.978-1.554.978.3-2.071L19.5,18.189l1.737-.3Z" transform="translate(8.549 -8.359)" fill="#fff"/>
        </g>
      </g>
    </g>
    <text id="_USD" data-name=" USD" transform="translate(19440 12872)" fill="#88898f" font-size="24" font-family="Roboto-Regular, Roboto"><tspan x="0" y="0"> </tspan><tspan y="0" font-size="50">USD</tspan></text>
    <text id="BRL" transform="translate(19760 12872)" fill="#88898f" font-size="50" font-family="Roboto-Regular, Roboto"><tspan x="0" y="0">BRL</tspan></text>
    <g id="Grupo_de_máscara_7" data-name="Grupo de máscara 7" transform="translate(5007 12203)" clip-path="url(#clip-path-4)">
      <g id="brasil" transform="translate(14664.961 624.56)">
        <path id="Caminho_3050" data-name="Caminho 3050" d="M56.366,50.6H70.145a2.505,2.505,0,0,0,2.505-2.5V3.006A2.505,2.505,0,0,0,70.145.5H2.5A2.505,2.505,0,0,0,0,3.006V48.1A2.5,2.5,0,0,0,2.5,50.6Zm0,0" transform="translate(0.001 -0.5)" fill="#4c8056"/>
        <path id="Caminho_3051" data-name="Caminho 3051" d="M79.449,69.749,104.5,86.033l25.052-16.284L104.5,53.465Zm0,0" transform="translate(-68.176 -45.95)" fill="#f3d55b"/>
        <path id="Caminho_3052" data-name="Caminho 3052" d="M211.74,115.192a8.593,8.593,0,0,1-1.653,5.111,8.41,8.41,0,0,1-2.117,2.092,8.765,8.765,0,0,1-13.766-7.2,1.1,1.1,0,0,1,.012-.2,8.149,8.149,0,0,1,.576-2.931,8.762,8.762,0,0,1,16.948,3.132Zm0,0" transform="translate(-166.647 -91.393)" fill="#3b97d3"/>
        <path id="Caminho_3053" data-name="Caminho 3053" d="M210.167,150.61a8.409,8.409,0,0,1-2.117,2.092l-.125-.7a9.394,9.394,0,0,0-12.99-6.977l-.639.275a8.133,8.133,0,0,1,.576-2.931,11.487,11.487,0,0,1,3.8-.626A11.84,11.84,0,0,1,210.167,150.61Zm0,0" transform="translate(-166.727 -121.7)" fill="#ecf0f1"/>
      </g>
    </g>
    <g id="Grupo_3130" data-name="Grupo 3130" transform="translate(19356.684 13017.198)">
      <text id="Enviar" transform="translate(28.316 23.802)" fill="#22376b" font-size="30" font-family="Roboto-Regular, Roboto"><tspan x="0" y="0">Enviar</tspan></text>
    </g>
    <g id="Grupo_3129" data-name="Grupo 3129" transform="translate(19602.684 12958.198)">
      <text id="Receber" transform="translate(171.316 82.802)" fill="#22376b" font-size="30" font-family="Roboto-Regular, Roboto"><tspan x="0" y="0">Receber</tspan></text>
    </g>
    <g id="Grupo_3135" data-name="Grupo 3135" transform="translate(-51 -30)">
      <g id="Grupo_de_máscara_16" data-name="Grupo de máscara 16" transform="translate(19378 12993)" clip-path="url(#clip-path-5)">
        <g transform="matrix(1, 0, 0, 1, -30, -497)" filter="url(#bottom_oblongo)">
          <g id="bottom_oblongo-2" data-name="bottom oblongo" transform="translate(244 533)" fill="#fafafa">
            <path d="M 155.1379089355469 120.9397048950195 L 27.87635612487793 120.9397048950195 C 24.27326202392578 120.9397048950195 20.77604675292969 120.0833511352539 17.48185539245605 118.394416809082 C 14.2842845916748 116.7550354003906 11.40909481048584 114.4038925170898 8.936165809631348 111.4063262939453 C 6.451594352722168 108.3946380615234 4.49976110458374 104.8842086791992 3.134832620620728 100.972541809082 C 1.718261122703552 96.91284942626953 0.9999991655349731 92.59844207763672 0.9999991655349731 88.14920806884766 L 0.9999991655349731 33.7905158996582 C 0.9999991655349731 29.34127807617188 1.718261122703552 25.0268726348877 3.134832620620728 20.96718215942383 C 4.49976110458374 17.05551528930664 6.451594352722168 13.54508686065674 8.936165809631348 10.53337287902832 C 11.40909481048584 7.535800933837891 14.2842845916748 5.18468189239502 17.48185539245605 3.545277118682861 C 20.77604675292969 1.856348633766174 24.27326202392578 0.9999914765357971 27.87635612487793 0.9999914765357971 L 155.1379089355469 0.9999914765357971 C 158.7409973144531 0.9999914765357971 162.2382202148438 1.856348633766174 165.5324096679688 3.545277118682861 C 168.72998046875 5.18468189239502 171.6051483154297 7.535800933837891 174.0780639648438 10.53337287902832 C 176.5626373291016 13.54508686065674 178.5144805908203 17.05551528930664 179.8794097900391 20.96718215942383 C 181.2959747314453 25.0268726348877 182.0142364501953 29.34127807617188 182.0142364501953 33.7905158996582 L 182.0142364501953 88.14920806884766 C 182.0142364501953 92.59844207763672 181.2959747314453 96.91284942626953 179.8794097900391 100.972541809082 C 178.5144805908203 104.8842086791992 176.5626373291016 108.3946380615234 174.0780639648438 111.4063262939453 C 171.6051483154297 114.4038925170898 168.72998046875 116.7550354003906 165.5324096679688 118.394416809082 C 162.2382202148438 120.0833511352539 158.7409973144531 120.9397048950195 155.1379089355469 120.9397048950195 Z" stroke="none"/>
            <path d="M 27.8763427734375 2 C 13.60806274414063 2 2 16.26117706298828 2 33.79052734375 L 2 88.14920043945313 C 2 105.6785507202148 13.60806274414063 119.939697265625 27.8763427734375 119.939697265625 L 155.1378936767578 119.939697265625 C 169.4061737060547 119.939697265625 181.0142364501953 105.6785507202148 181.0142364501953 88.14920043945313 L 181.0142364501953 33.79052734375 C 181.0142364501953 16.26117706298828 169.4061737060547 2 155.1378936767578 2 L 27.8763427734375 2 M 27.8763427734375 0 L 155.1378936767578 0 C 170.5335693359375 0 183.0142364501953 15.12852478027344 183.0142364501953 33.79052734375 L 183.0142364501953 88.14920043945313 C 183.0142364501953 106.8111724853516 170.5335693359375 121.939697265625 155.1378936767578 121.939697265625 L 27.8763427734375 121.939697265625 C 12.48066711425781 121.939697265625 0 106.8111724853516 0 88.14920043945313 L 0 33.79052734375 C 0 15.12852478027344 12.48066711425781 0 27.8763427734375 0 Z" stroke="none" fill="#e9edf0"/>
          </g>
        </g>
      </g>
      <g transform="matrix(1, 0, 0, 1, 19348, 12496)" filter="url(#bottom_elipse)">
        <g id="bottom_elipse-2" data-name="bottom elipse" transform="translate(364 538)" stroke="#fafafa" stroke-width="0.5" fill="url(#linear-gradient-4)">
          <circle cx="29" cy="29" r="29" stroke="none"/>
          <circle cx="29" cy="29" r="28.75" fill="none"/>
        </g>
      </g>
    </g>
    <g id="Grupo_36" data-name="Grupo 36" transform="translate(19375 12668)">
      <g id="Grupo_1" data-name="Grupo 1" transform="translate(291 608)">
        <g transform="matrix(1, 0, 0, 1, -369, -810)" filter="url(#scale-white-color-0-11)">
          <rect id="scale-white-color-0-35" data-name="scale-white-color-0" width="259" height="96" rx="20" transform="translate(369 810)" fill="#111320"/>
        </g>
        <g transform="matrix(1, 0, 0, 1, -369, -810)" filter="url(#scale-white-color-0-12)">
          <path id="scale-white-color-0-36" data-name="scale-white-color-0" d="M14.153,0H244.847C252.663,0,259,8.954,259,20V76c0,11.046-6.337,20-14.153,20H14.153C6.337,96,0,87.046,0,76V20C0,8.954,6.337,0,14.153,0Z" transform="translate(369 810)" fill="#22376b"/>
        </g>
        <rect id="scale-white-color-0-37" data-name="scale-white-color-0" width="259" height="96" rx="20" transform="translate(0)" fill="url(#linear-gradient)"/>
        <g id="scale-white-color-0-38" data-name="scale-white-color-0" transform="translate(0)" fill="none" stroke="#22376b" stroke-width="0.5">
          <rect width="259" height="96" rx="20" stroke="none"/>
          <rect x="0.25" y="0.25" width="258.5" height="95.5" rx="19.75" fill="none"/>
        </g>
      </g>
    </g>
    <text id="Comprar_agora" data-name="Comprar agora" transform="translate(19696 13335)" fill="#fff" font-size="30" font-family="Roboto-Regular, Roboto"><tspan x="0" y="0">Comprar agora</tspan></text>
    <g id="up_light_btn-4" data-name="up_light_btn" transform="translate(19648 13151)">
      <g id="Grupo_38-4" data-name="Grupo 38">
        <g transform="matrix(1, 0, 0, 1, -351, -685)" filter="url(#scale-white-color-0-13)">
          <rect id="scale-white-color-0-39" data-name="scale-white-color-0" width="285" height="80" rx="20" transform="translate(351 685)" fill="#60616a"/>
        </g>
        <g transform="matrix(1, 0, 0, 1, -351, -685)" filter="url(#scale-white-color-0-14)">
          <rect id="scale-white-color-0-40" data-name="scale-white-color-0" width="285" height="80" rx="20" transform="translate(351 685)" fill="#60616a"/>
        </g>
      </g>
      <g id="scale-white-color-0-41" data-name="scale-white-color-0" fill="none" stroke="#ebebeb" stroke-width="0.5" opacity="0.16">
        <rect width="285" height="80" rx="20" stroke="none"/>
        <rect x="0.25" y="0.25" width="284.5" height="79.5" rx="19.75" fill="none"/>
      </g>
      <rect id="scale-white-color-0-42" data-name="scale-white-color-0" width="285" height="80" rx="20" opacity="0.1" fill="url(#linear-gradient)"/>
    </g>
    <text id="Remessa_internacional" data-name="Remessa internacional" transform="translate(19669 13200)" fill="#fff" font-size="24" font-family="Roboto-Regular, Roboto"><tspan x="0" y="0">Remessa internacional</tspan></text>
  </g>
</svg>
